<?xml version="1.0" standalone="no"?>
<!DOCTYPE svg PUBLIC "-//W3C//DTD SVG 20010904//EN"
 "http://www.w3.org/TR/2001/REC-SVG-20010904/DTD/svg10.dtd">
<svg version="1.0" xmlns="http://www.w3.org/2000/svg"
 width="225.000000pt" height="225.000000pt" viewBox="0 0 225.000000 225.000000"
 preserveAspectRatio="xMidYMid meet">
<metadata>
Created by potrace 1.16, written by Peter Selinger 2001-2019
</metadata>
<g transform="translate(0.000000,225.000000) scale(0.100000,-0.100000)"
fill="#000000" stroke="none">
<path d="M1075 2153 c-26 -7 -815 -451 -839 -471 -10 -10 -27 -35 -37 -57 -17
-37 -19 -75 -19 -500 0 -425 2 -463 19 -500 10 -22 27 -47 37 -57 10 -9 201
-119 424 -245 403 -227 405 -228 465 -228 60 0 62 1 465 228 223 126 414 236
424 245 10 10 27 35 37 57 17 37 19 75 19 500 0 425 -2 463 -19 500 -10 22
-27 47 -37 57 -10 9 -201 118 -422 243 -335 188 -412 227 -450 230 -26 2 -56
1 -67 -2z m185 -505 c25 -6 77 -27 115 -47 74 -38 182 -132 171 -150 -4 -5
-47 -33 -96 -61 l-89 -51 -48 34 c-71 50 -109 62 -193 61 -125 0 -223 -61
-277 -172 -24 -48 -28 -69 -28 -137 1 -93 22 -149 80 -213 57 -64 134 -97 225
-97 84 0 122 12 193 62 l48 34 89 -51 c49 -28 93 -56 97 -62 10 -17 -100 -114
-170 -149 -89 -45 -152 -61 -242 -62 -152 -2 -287 53 -390 157 -107 108 -158
232 -158 386 0 112 27 202 87 293 73 110 204 201 326 226 30 6 64 13 75 15 27
6 129 -3 185 -16z m410 -343 l0 -45 40 0 40 0 0 45 0 45 50 0 50 0 0 -45 0
-45 45 0 45 0 0 -45 0 -45 -45 0 -45 0 0 -45 0 -45 45 0 45 0 0 -45 0 -45 -45
0 -45 0 0 -45 0 -45 -50 0 -50 0 0 45 0 45 -40 0 -40 0 0 -45 0 -45 -50 0 -50
0 0 45 0 45 -45 0 -45 0 0 45 0 45 45 0 45 0 0 45 0 45 -45 0 -45 0 0 45 0 45
45 0 45 0 0 45 0 45 50 0 50 0 0 -45z"/>
</g>
</svg>
